<svg xmlns="http://www.w3.org/2000/svg" viewBox="0 0 271.62 414.37"><defs><style>.cls-1{fill:#414042;}.cls-2{fill:#fff;}.cls-3{fill:#6d6e71;}.cls-4,.cls-6{fill:#be1e2d;}.cls-5{fill:#810915;}.cls-6{stroke:#f7941d;stroke-miterlimit:10;stroke-width:3px;}</style></defs><g id="Layer_2" data-name="Layer 2"><g id="Layer_3" data-name="Layer 3"><polyline class="cls-1" points="18.08 66.08 10 71.61 7.85 414.37 271.62 414.37 271.62 101.63 263.74 94.17 18.08 66.08"/><polyline class="cls-2" points="104.89 88.07 175.06 146.73 188.98 152.47 246.81 99.73 171.17 88.07 104.89 88.07"/><polyline class="cls-3" points="132.37 102.55 144.65 110.1 167.33 112.54"/><polygon class="cls-3" points="233.04 112 205.93 116.74 198.82 114.37 190.78 114.37 181.63 113.04 191.85 113.04 203.11 112 209.19 113.78 233.04 112"/><polygon class="cls-3" points="212.91 124.59 194.22 129.89 172.74 129.15 164.15 129.89 166.62 128.4 193.04 127.96 212.91 124.59"/><polygon class="cls-4" points="15.11 0 0 10.37 11.85 31.7 4.13 46.27 13.16 57.48 10.37 63.11 18.08 66.08 175.62 106 241.04 101.63 263.74 94.17 269.04 74.96 262.81 70.81 267.56 60.74 260.15 50.37 15.11 0"/><polyline class="cls-5" points="11.85 31.7 77.56 42.59 9.93 28.24 11.85 31.7"/><polyline class="cls-5" points="11.51 55.43 47.78 61.85 10.37 63.11 13.16 57.48 11.51 55.43"/><polygon class="cls-5" points="77.56 68.15 101.85 75.56 124.41 77.26 77.56 68.15"/><polyline class="cls-5" points="262.81 70.81 246.81 72.7 269.04 74.96 262.81 70.81"/><polyline class="cls-5" points="124.74 53 174.21 63.11 236.15 68.15"/><ellipse class="cls-6" cx="139.74" cy="150.69" rx="11.86" ry="18.02"/><ellipse class="cls-6" cx="234.95" cy="152.47" rx="11.86" ry="18.02"/><rect class="cls-4" x="7.85" y="391.7" width="263.77" height="22.66"/></g></g></svg>