<svg xmlns="http://www.w3.org/2000/svg" viewBox="0 0 497.34 507.48"><defs><style>.cls-1{fill:#8b0e1a;}.cls-2{fill:#94111e;}.cls-3{fill:#a81826;}.cls-4{fill:#414042;}.cls-5{fill:#cf1a2b;}.cls-6{fill:#3b3b3c;}.cls-7{fill:#4a4b4c;}.cls-8{fill:#333132;}.cls-17,.cls-9{fill:#58595b;}.cls-10{fill:#4d4d4f;}.cls-11{fill:#515254;}.cls-12{fill:#464547;}.cls-13{fill:#434345;}.cls-14{fill:#48484a;}.cls-15{fill:#be1e2d;}.cls-16{fill:#af1a28;}.cls-17{stroke:#414042;stroke-miterlimit:10;stroke-width:2px;}.cls-18{fill:#363436;}</style></defs><g id="Layer_2" data-name="Layer 2"><g id="Layer_3" data-name="Layer 3"><polygon class="cls-1" points="302.34 152.43 304.06 121.63 324.72 111.07 325.04 101.58 375.99 52.43 385.76 173.4 371.24 187.52 361.89 187.2 350.2 204.35 347.18 279.52 293.66 267.54 302.34 152.43"/><polygon class="cls-2" points="338.73 277.63 341.24 204.05 357.14 180.9 366.19 181.21 361.89 187.2 350.2 204.35 347.18 279.52 338.73 277.63"/><polygon class="cls-3" points="371.25 187.52 385.76 173.4 375.99 52.43 378.78 172.43 366.19 181.21 361.89 187.2 371.25 187.52"/><path class="cls-4" d="M497.34,0a.24.24,0,0,1,0,.08s0,.1-.05.19a3.46,3.46,0,0,0-.11.37c0,.13-.09.29-.13.45s-.12.42-.2.67-.13.43-.2.68a.1.1,0,0,0,0,.07C492,18.23,462.4,122.22,448.85,154.68c-16.8,40.25-29.06,74.66-29.06,74.66l-115,42.57-37.39-24.66-.67-.43,32-42.64s48.72-15.5,101.05-75.33C451.48,69.75,496.26,1.63,497.33,0Z"/><path class="cls-5" d="M497.33,0V.08s0,.1-.05.19a3.46,3.46,0,0,0-.11.37,3.56,3.56,0,0,1-.13.45c-.06.2-.12.42-.2.67s-.13.43-.2.68a.1.1,0,0,0,0,.07c-3.08,9.93-32.56,72.17-60,123-34.42,63.66-50.4,105.88-50.4,105.88L267.35,247.25l-.67-.43,32-42.64s48.72-15.5,101.05-75.33C451.48,69.75,496.26,1.63,497.33,0Z"/><path class="cls-4" d="M277,117.41,270.62,203l-3.5,46-25.31-24.26-1.62-25.19L248.84,76l16.61,15.78,0,.09a17.34,17.34,0,0,0-2.47,8.4C262.71,109,268.89,116.45,277,117.41Z"/><path class="cls-4" d="M11.44,315.68,4.25,298A12.26,12.26,0,0,0,7,287.83L0,249.41l5-43.56,5.47,5.47a5.15,5.15,0,0,1,1.38,2.47L17.38,237,25,240.76Z"/><path class="cls-6" d="M50,150.06l-.59,8.18-5,68-3.5,45.95L15.59,247.93,14,222.74,22.62,99.22l6.35,6,9.86,10.61a17.35,17.35,0,0,0-2,7.63C36.5,132.27,41.84,149.1,50,150.06Z"/><path class="cls-7" d="M50,150.06l-.29,8.47-.3-.29c-2-1.84-12.46-12-15.8-19.22-3.67-8-2.4-19.72-2.4-19.72L22.62,99.22l6.35,6,9.86,10.61a17.35,17.35,0,0,0-2,7.63C36.5,132.27,41.84,149.1,50,150.06Z"/><polygon class="cls-8" points="17.41 173.71 46.32 200.41 40.9 272.19 15.59 247.93 13.98 222.74 17.41 173.71"/><path class="cls-9" d="M402.76,317.92c-1.15,21.86-3.52,45.37-8.31,59.89-5.21,15.89-13,42.18-25.69,67.76C352.57,478.16,332,507.48,332,507.48l-.58-.1L167.21,478.85,139,431.91A177.92,177.92,0,1,1,397.82,229.67c.2.71.38,1.41.57,2.11a178.26,178.26,0,0,1,5.32,32.45.38.38,0,0,1,0,.15c0,1.3.21,11.22,0,25,0,.86,0,1.72-.05,2.6C403.52,299.81,403.24,308.72,402.76,317.92Z"/><path class="cls-10" d="M402.76,317.92c-1.15,21.86-3.52,45.37-8.31,59.89-5.21,15.89-13,42.18-25.69,67.76C352.57,478.16,332,507.48,332,507.48l-.58-.1c2-21,5.2-49,10.16-75.31,9.67-51.23,5.9-158.71,5.9-158.71l50.39-43.69c.2.71.38,1.41.57,2.11a178.26,178.26,0,0,1,5.32,32.45.38.38,0,0,1,0,.15c0,1.3.21,11.22,0,25,0,.86,0,1.72-.05,2.6C403.52,299.81,403.24,308.72,402.76,317.92Z"/><path class="cls-10" d="M382.86,192.39l-42.66,3.82L294.25,149s-22-26.49-62.34-37.8a345.32,345.32,0,0,0-41.21-8.74,178.16,178.16,0,0,1,192.16,89.9Z"/><path class="cls-11" d="M398.39,231.78l-51,41.58-92.25-14L222.32,233.4,270.62,203,266,181.27,294.25,149l57.91,16.62,8.32,13.55,18.21,5.91A176.9,176.9,0,0,1,398.39,231.78Z"/><polygon class="cls-12" points="222.32 233.41 270.62 202.98 265.95 181.27 294.25 149.03 352.16 165.65 360.48 179.2 378.69 185.11 386.19 198.9 222.32 233.41"/><polygon class="cls-4" points="297.54 153.55 268.91 181.37 287.96 213.45 340.1 237.42 367.81 204.28 349.15 168.42 297.54 153.55"/><polygon class="cls-13" points="297.54 153.55 327.42 170.87 343.86 203.46 340.1 237.42 287.96 213.45 268.91 181.37 297.54 153.55"/><polygon class="cls-9" points="268.91 181.37 297.54 153.55 327.42 170.87 268.91 181.37"/><path class="cls-14" d="M327.42,170.87s-22.77,7.51-28.17,14.52c-4.9,6.35-11.29,28.06-11.29,28.06l-19-32.08Z"/><path class="cls-13" d="M347.43,273.36l-7.33-35.94,27.71-33.14-.7-1.36,19.08-4s4.35,9.24,6.06,13.88,6.14,19,6.14,19Z"/><path class="cls-4" d="M333,6.08a.45.45,0,0,1,0,.08s0,.1-.06.19-.08.23-.11.37-.08.29-.13.46-.12.41-.19.66-.14.43-.21.68a.11.11,0,0,0,0,.08c-4.6,15.71-30,100.91-48.63,130.32-23.3,36.87-76.53,117.54-76.53,117.54L140.44,278l-37.39-24.66-.67-.43,32-42.64s48.72-15.5,101.06-75.33C287.19,75.83,332,7.72,333,6.11Z"/><path class="cls-5" d="M333,6.11v0s0,.1-.06.19-.08.23-.11.37a4.21,4.21,0,0,1-.13.46c-.06.19-.12.41-.19.66s-.14.43-.21.68a.11.11,0,0,0,0,.08C329.24,18.52,316,56.9,280.83,108c-41,59.63-93.46,122.37-93.46,122.37l-84.32,23-.67-.43,32-42.64s48.72-15.5,101.06-75.33C287.19,75.83,332,7.72,333,6.11Z"/><path class="cls-15" d="M402.76,317.92c-3,5.17-7.51,12.7-13.76,22.57-10.71,16.94-29.24,37.21-32.2,41.2L346,392.23l-3.93-.91c-2.75-.63-67.89-15.79-105.06-26.83-37.56-11.16-75.46-42.47-77.75-43.43l-10-31.78c.54.23,62.52,29.3,98.2,39.9,28.25,8.4,81.4,21.61,100.67,26.17,10.23-8.44,23.21-20.2,29.88-28.59,9.31-11.72,16-20.61,16-20.61L403.65,292C403.52,299.81,403.24,308.72,402.76,317.92Z"/><polygon class="cls-15" points="49.59 157.07 51.31 126.27 71.96 115.72 72.28 106.22 123.23 57.08 133 178.04 118.49 192.17 109.14 191.85 97.44 209 94.42 284.16 40.9 272.19 49.59 157.07"/><polygon class="cls-2" points="85.98 282.27 88.48 208.69 113.44 185.85 109.14 191.85 97.44 209 94.42 284.16 85.98 282.27"/><polygon class="cls-3" points="118.49 192.16 133 178.04 123.23 57.08 126.02 177.07 113.44 185.85 109.13 191.85 118.49 192.16"/><polygon class="cls-16" points="199.8 357.53 183.05 337.72 152.72 328.73 148.97 318.96 118.55 293.35 115.89 277.15 95.32 261.57 97.44 209 109.13 191.85 118.49 192.16 129.99 197.82 136.4 215.88 125.24 234.22 130.5 251.36 127.49 262.66 148.85 287.95 157.12 311.34 192.9 325.72 199.8 357.53"/><polygon class="cls-2" points="120.9 262.73 124.4 250.56 118.14 234.41 129.25 215.05 123.18 200.07 109.13 191.85 118.49 192.16 129.99 197.82 136.4 215.88 125.24 234.22 130.5 251.36 127.49 262.66 148.85 287.95 120.9 262.73"/><polygon class="cls-2" points="199.8 357.53 190.06 327.23 152.24 312.92 148.85 287.95 157.12 311.34 192.9 325.72 199.8 357.53"/><path class="cls-6" d="M94.52,294.68c-1.25,36.66-18.72,65.92-39.24,66.09-.3,0-.61,0-.92,0l-9-.3.07-1.89c-16.36-7.73-27.77-34.76-26.69-66.47s14.31-57.91,31.15-64.5l.07-1.9,9,.31c.31,0,.62,0,.92.06C80.33,227.63,95.77,258,94.52,294.68Z"/><ellipse class="cls-9" cx="47.69" cy="293.08" rx="67.42" ry="37.9" transform="matrix(0.03, -1, 1, 0.03, -246.85, 330.76)"/><ellipse class="cls-17" cx="47.69" cy="293.08" rx="42.03" ry="23.62" transform="translate(-246.85 330.76) rotate(-88.05)"/><path class="cls-4" d="M108.6,425.78c.77-3.69-4.55-11.37-12.89-18.28s-17.18-10.85-20.53-9.23L54.36,360.76,81.79,342l.13.13c-1.39,6,6,19.11,17.86,30.81,12.65,12.52,25.68,18.87,29.57,14.56l0,0,25.25,39.85Z"/><polygon class="cls-4" points="101.18 425.53 199.03 428.86 240.07 482.98 258.87 486.54 267.55 497.68 140.67 479.51 101.18 425.53"/><polygon class="cls-18" points="101.18 425.53 108.59 424.13 202.59 427.33 199.03 428.86 101.18 425.53"/><polygon class="cls-18" points="199.03 428.86 240.07 482.98 258.87 486.54 267.55 497.68 269.17 496.61 260.21 485.01 241.82 480.92 202.59 427.33 199.03 428.86"/></g></g></svg>