<svg xmlns="http://www.w3.org/2000/svg" viewBox="0 0 167.7 258.66"><defs><style>.cls-1{fill:#be1e2d;}.cls-2{fill:#3b3b3c;}.cls-3{fill:#414042;}</style></defs><g id="Layer_2" data-name="Layer 2"><g id="Layer_3" data-name="Layer 3"><g id="BottomRightLeg"><path class="cls-1" d="M123.56,202.37H59.26L50.81,50.44C49.29,23.13,67.75,0,91.07,0h0c23.24,0,41.68,23,40.28,50.2Z"/><polygon class="cls-2" points="14.22 25.33 53.33 8.59 118.52 8.59 149.04 16.44 156.33 27.11 157.81 60.44 162.97 76.15 162.97 87.41 167.7 101.19 157.81 115.26 144.59 127.11 126.96 135.98 100.74 135.98 81.78 130.07 58.67 138.96 30.22 133.63 7.7 128.3 0 96.89 10.07 73.78 0 60.44 14.22 25.33"/><path class="cls-3" d="M61,194.67h65.48A36.44,36.44,0,0,1,163,231.11v16.7a10.85,10.85,0,0,1-10.85,10.85H58.85A10.85,10.85,0,0,1,48,247.81V207.7A13,13,0,0,1,61,194.67Z"/><path class="cls-1" d="M163,242.67v5.14a10.85,10.85,0,0,1-10.85,10.85H58.84A10.84,10.84,0,0,1,48,247.81v-5.14Z"/></g></g></g></svg>