<svg xmlns="http://www.w3.org/2000/svg" viewBox="0 0 143.59 217.48"><defs><style>.cls-1{fill:#58595b;}.cls-2{fill:#27aae1;}.cls-3{fill:#3b3b3c;}</style></defs><g id="Layer_2" data-name="Layer 2"><g id="Layer_3" data-name="Layer 3"><g id="TopRightLeg"><path class="cls-1" d="M65.63,0H87.55a42.81,42.81,0,0,1,42.81,42.81V208.93a2.33,2.33,0,0,1-2.33,2.33H25.15a2.33,2.33,0,0,1-2.33-2.33V42.81A42.81,42.81,0,0,1,65.63,0Z"/><path class="cls-2" d="M130.37,194.37v14.56a2.33,2.33,0,0,1-2.34,2.33H25.15a2.33,2.33,0,0,1-2.34-2.33V194.37Z"/><polygon class="cls-3" points="36.49 1.93 13.92 29.93 17.03 53.04 15.7 70.81 6.37 82.81 10.22 103.26 10.43 117.04 6.37 134.37 6.37 160.15 0 182.37 8.15 198.37 13.48 207.7 40.59 215.26 65.92 215.26 101.03 215.26 130.37 217.48 143.59 201.04 142.1 184.15 134.81 173.48 137 155.26 142.1 141.48 137 109.7 138.81 73.04 140.15 59.7 134.37 48.24 137 27.26 125.03 8.81 109.48 0 36.49 1.93"/></g></g></g></svg>