<svg xmlns="http://www.w3.org/2000/svg" viewBox="0 0 141.3 115.57"><defs><style>.cls-1{fill:#414042;}.cls-2{fill:#f7941d;}.cls-3{fill:#f15a29;}</style></defs><g id="Layer_2" data-name="Layer 2"><g id="Layer_3" data-name="Layer 3"><path id="TopRightHand" class="cls-1" d="M137.48,85.44l-2,4.45a28,28,0,0,1-20,15.84l-49.18,9.84L18.44,103.2l-5.62-5.43A42,42,0,0,1,0,67.56H0A42,42,0,0,1,15.09,35.3l8.58-7.16L58,18,88.82,30l15.79-2.71a24.88,24.88,0,0,1,25.83,12.22l5.4,9.48A40.1,40.1,0,0,1,137.48,85.44Z"/><path class="cls-2" d="M132.36,70.62s14.2-38.72,6.8-51.51S117-3.16,108.69,1s-22.5,14-22.5,14L70.55,13.15,58.28,17l-19-3.84L21.75,39.51l5.13,34.64,14.7,14.18H73.1l19.68-1.78L105,92.25Z"/><polyline class="cls-3" points="86.19 14.97 84.36 25.98 89.99 55.01"/><polyline class="cls-3" points="58.28 16.99 56.21 31.01 61.84 55.01"/><polyline class="cls-3" points="110.43 3.73 106.28 20.94 115.47 66.77"/></g></g></svg>