<svg xmlns="http://www.w3.org/2000/svg" viewBox="0 0 207.45 92.37"><defs><style>.cls-1{fill:#f6cdaa;}.cls-2{fill:#414042;}.cls-3{fill:#f15a29;}.cls-4{fill:#18191d;}</style></defs><g id="Layer_2" data-name="Layer 2"><g id="Layer_3" data-name="Layer 3"><g id="BottomLeftHand"><g id="RightHand"><rect class="cls-1" x="132.34" y="37.83" width="75.11" height="39.56" rx="11.56" transform="translate(339.79 115.21) rotate(180)"/><path class="cls-2" d="M132,37.5h46.33A11.56,11.56,0,0,1,189.9,49.05V66.5a11.56,11.56,0,0,1-11.56,11.56H132a0,0,0,0,1,0,0V37.5A0,0,0,0,1,132,37.5Z" transform="translate(321.9 115.55) rotate(180)"/><rect class="cls-1" x="139.15" y="15.93" width="42.74" height="27.03" rx="11.56" transform="translate(294.85 -63.24) rotate(135)"/><path class="cls-2" d="M138.88,20.75h18.89A11.56,11.56,0,0,1,169.32,32.3v5.85a11.56,11.56,0,0,1-11.56,11.56H138.88a0,0,0,0,1,0,0v-29a0,0,0,0,1,0,0Z" transform="translate(287.98 -48.83) rotate(135)"/></g><path class="cls-3" d="M22.62,10.17,11.84,19.44A33.89,33.89,0,0,0,0,44.91l0,4.28A33.92,33.92,0,0,0,16.71,78.67l11.14,6.56,50.31,7.14L99.33,83.3l58,3.58L154.86,6l-58,4.18L71,0Z"/><polygon class="cls-4" points="154.86 5.99 142.35 6.89 144.88 86.11 157.33 86.88 154.86 5.99"/></g></g></g></svg>