<svg xmlns="http://www.w3.org/2000/svg" viewBox="0 0 118.6 258.66"><defs><style>.cls-1{fill:#f6cdaa;}.cls-2{fill:#18191d;}.cls-3{fill:#414042;}</style></defs><g id="Layer_2" data-name="Layer 2"><g id="Layer_3" data-name="Layer 3"><g id="BottomRightLeg"><path class="cls-1" d="M79.19,202.37H14.89L6.44,50.44C4.92,23.13,23.38,0,46.7,0h0C69.94,0,88.38,23,87,50.2Z"/><path class="cls-2" d="M84.3,157H9.88L.1,39.14C-1.66,18,19.71,0,46.7,0h0C73.6,0,94.94,17.83,93.32,39Z"/><polygon class="cls-2" points="81.26 202.37 14.15 201.92 11.93 177.93 81.86 177.93 81.26 202.37"/><path class="cls-2" d="M16.67,194.67H82.15a36.44,36.44,0,0,1,36.44,36.44v16.7a10.85,10.85,0,0,1-10.85,10.85H14.48A10.85,10.85,0,0,1,3.63,247.81V207.7A13,13,0,0,1,16.67,194.67Z"/><path class="cls-3" d="M23.12,194.67l16.66,64H14.48A10.84,10.84,0,0,1,3.64,247.81v-40.1a13,13,0,0,1,13-13Z"/><path class="cls-3" d="M88.23,240.89a102,102,0,0,0,1.5,17.77H39.78l32.67-64h9.7a36.2,36.2,0,0,1,17.8,4.64C93.11,205.47,88.23,221.76,88.23,240.89Z"/><path class="cls-1" d="M118.6,231.11v16.7a10.85,10.85,0,0,1-10.85,10.85h-18a102,102,0,0,1-1.5-17.77c0-19.13,4.88-35.42,11.72-41.58A36.42,36.42,0,0,1,118.6,231.11Z"/><path class="cls-2" d="M118.6,242.67v5.14a10.85,10.85,0,0,1-10.85,10.85H14.48A10.84,10.84,0,0,1,3.64,247.81v-5.14Z"/></g></g></g></svg>