<svg xmlns="http://www.w3.org/2000/svg" viewBox="0 0 141.1 97.6"><defs><style>.cls-1{fill:#414042;}.cls-2{fill:#a7a9ac;}.cls-3{fill:#939598;}.cls-4{fill:#8b5e3c;}</style></defs><g id="Layer_2" data-name="Layer 2"><g id="Layer_3" data-name="Layer 3"><path id="TopRightHand" class="cls-1" d="M137.48,67.47l-2,4.45a28,28,0,0,1-20,15.84L66.28,97.6,18.44,85.23,12.82,79.8A42,42,0,0,1,0,49.59H0A42,42,0,0,1,15.09,17.33l8.58-7.16L58,0,88.82,12l15.79-2.71a24.88,24.88,0,0,1,25.83,12.22l5.4,9.48A40.1,40.1,0,0,1,137.48,67.47Z"/><circle class="cls-2" cx="77.25" cy="54.78" r="23.7"/><circle class="cls-3" cx="77.25" cy="54.78" r="17.68"/><circle class="cls-2" cx="77.25" cy="54.78" r="12.44"/><rect class="cls-4" x="61.99" y="26.9" width="30.51" height="5.04"/><rect class="cls-4" x="61.99" y="77.62" width="30.51" height="5.04"/></g></g></svg>